<svg width="111" height="39" viewBox="0 0 111 39" fill="none" xmlns="http://www.w3.org/2000/svg">
<g clip-path="url(#clip0_46_63)">
<path d="M10.4531 15.4173C10.358 14.6022 9.97235 13.9694 9.29609 13.519C8.61984 13.0685 7.79037 12.8433 6.80769 12.8433C6.08916 12.8433 5.46046 12.9613 4.92157 13.1972C4.38796 13.4332 3.97058 13.7576 3.66944 14.1705C3.37358 14.5835 3.22564 15.0527 3.22564 15.5782C3.22564 16.018 3.32867 16.396 3.53471 16.7124C3.74604 17.0234 4.01549 17.2835 4.34305 17.4927C4.67061 17.6964 5.01402 17.8654 5.37328 17.9994C5.73254 18.1281 6.06275 18.2327 6.36389 18.3131L8.01227 18.7636C8.43493 18.8762 8.90513 19.0317 9.42289 19.2301C9.94593 19.4285 10.4452 19.6994 10.9207 20.0426C11.4015 20.3804 11.7977 20.8148 12.1094 21.3457C12.4211 21.8766 12.577 22.5281 12.577 23.3003C12.577 24.1905 12.3472 24.9949 11.8875 25.7135C11.4332 26.4321 10.7675 27.0032 9.89046 27.4268C9.01872 27.8505 7.95943 28.0623 6.71259 28.0623C5.55027 28.0623 4.54381 27.8719 3.69321 27.4912C2.84789 27.1104 2.1822 26.5795 1.69614 25.8985C1.21537 25.2174 0.943282 24.4265 0.879883 23.5256H2.90865C2.96148 24.1476 3.16753 24.6624 3.52679 25.07C3.89133 25.4722 4.35098 25.7725 4.90572 25.9709C5.46574 26.1639 6.06803 26.2605 6.71259 26.2605C7.46281 26.2605 8.13642 26.1371 8.73343 25.8905C9.33044 25.6384 9.80329 25.2898 10.152 24.8447C10.5007 24.3943 10.675 23.8688 10.675 23.2682C10.675 22.7212 10.5245 22.2761 10.2233 21.9329C9.92216 21.5897 9.52592 21.3108 9.03457 21.0963C8.54323 20.8818 8.01227 20.6941 7.44168 20.5332L5.44461 19.9541C4.17663 19.5841 3.17281 19.0558 2.43316 18.3694C1.6935 17.683 1.32368 16.7848 1.32368 15.6747C1.32368 14.7524 1.56935 13.948 2.06069 13.2616C2.55731 12.5698 3.223 12.0336 4.05776 11.6528C4.89779 11.2667 5.83557 11.0737 6.87108 11.0737C7.91717 11.0737 8.84702 11.264 9.66064 11.6448C10.4743 12.0202 11.1188 12.535 11.5943 13.1892C12.0751 13.8434 12.3287 14.5861 12.3551 15.4173H10.4531Z" fill="#343434"/>
<path d="M20.6584 28.0301C19.4855 28.0301 18.4738 27.7674 17.6232 27.2418C16.7778 26.7109 16.1254 25.9709 15.6657 25.0217C15.2113 24.0672 14.9842 22.9571 14.9842 21.6916C14.9842 20.426 15.2113 19.3106 15.6657 18.3453C16.1254 17.3747 16.7646 16.6186 17.5835 16.0769C18.4077 15.53 19.3693 15.2565 20.4682 15.2565C21.1022 15.2565 21.7282 15.3637 22.3464 15.5782C22.9645 15.7927 23.5272 16.1413 24.0344 16.6239C24.5416 17.1012 24.9457 17.734 25.2469 18.5223C25.548 19.3106 25.6986 20.2812 25.6986 21.4342V22.2385H16.3155V20.5976H23.7966C23.7966 19.9005 23.6593 19.2784 23.3845 18.7314C23.1151 18.1844 22.7294 17.7527 22.2275 17.4364C21.7309 17.12 21.1444 16.9618 20.4682 16.9618C19.7232 16.9618 19.0787 17.1495 18.5345 17.5248C17.9956 17.8949 17.5809 18.3775 17.2903 18.9727C16.9997 19.568 16.8544 20.2061 16.8544 20.8872V21.9811C16.8544 22.9142 17.0129 23.7052 17.3299 24.3541C17.6522 24.9976 18.0986 25.4883 18.6692 25.8261C19.2398 26.1586 19.9029 26.3248 20.6584 26.3248C21.1497 26.3248 21.5935 26.2551 21.9898 26.1157C22.3913 25.9709 22.7373 25.7564 23.0279 25.4722C23.3185 25.1826 23.543 24.8233 23.7015 24.3943L25.5084 24.9091C25.3182 25.5312 24.9986 26.0781 24.5495 26.55C24.1004 27.0166 23.5457 27.3812 22.8853 27.644C22.2249 27.9014 21.4826 28.0301 20.6584 28.0301Z" fill="#343434"/>
<path d="M30.4139 11.2989V27.7727H28.5436V11.2989H30.4139Z" fill="#343434"/>
<path d="M35.7097 11.2989V27.7727H33.8394V11.2989H35.7097Z" fill="#343434"/>
<path d="M44.2388 28.0301C43.0659 28.0301 42.0542 27.7674 41.2036 27.2418C40.3583 26.7109 39.7058 25.9709 39.2462 25.0217C38.7918 24.0672 38.5646 22.9571 38.5646 21.6916C38.5646 20.426 38.7918 19.3106 39.2462 18.3453C39.7058 17.3747 40.3451 16.6186 41.164 16.0769C41.9882 15.53 42.9497 15.2565 44.0486 15.2565C44.6826 15.2565 45.3087 15.3637 45.9268 15.5782C46.545 15.7927 47.1076 16.1413 47.6148 16.6239C48.122 17.1012 48.5262 17.734 48.8273 18.5223C49.1285 19.3106 49.279 20.2812 49.279 21.4342V22.2385H39.896V20.5976H47.3771C47.3771 19.9005 47.2397 19.2784 46.965 18.7314C46.6955 18.1844 46.3099 17.7527 45.808 17.4364C45.3113 17.12 44.7249 16.9618 44.0486 16.9618C43.3037 16.9618 42.6591 17.1495 42.115 17.5248C41.5761 17.8949 41.1613 18.3775 40.8708 18.9727C40.5802 19.568 40.4349 20.2061 40.4349 20.8872V21.9811C40.4349 22.9142 40.5934 23.7052 40.9104 24.3541C41.2327 24.9976 41.6791 25.4883 42.2497 25.8261C42.8203 26.1586 43.4833 26.3248 44.2388 26.3248C44.7302 26.3248 45.174 26.2551 45.5702 26.1157C45.9717 25.9709 46.3178 25.7564 46.6084 25.4722C46.8989 25.1826 47.1235 24.8233 47.282 24.3943L49.0888 24.9091C48.8987 25.5312 48.579 26.0781 48.1299 26.55C47.6809 27.0166 47.1261 27.3812 46.4657 27.644C45.8053 27.9014 45.063 28.0301 44.2388 28.0301Z" fill="#343434"/>
<path d="M52.1241 27.7727V15.4173H53.9309V17.2835H54.0577C54.2796 16.6722 54.6812 16.1761 55.2623 15.7954C55.8435 15.4147 56.4986 15.2243 57.2277 15.2243C57.3651 15.2243 57.5368 15.227 57.7428 15.2323C57.9489 15.2377 58.1047 15.2457 58.2104 15.2565V17.187C58.147 17.1709 58.0017 17.1468 57.7745 17.1146C57.5526 17.0771 57.3175 17.0583 57.0692 17.0583C56.4775 17.0583 55.9491 17.1843 55.4842 17.4364C55.0246 17.683 54.66 18.0262 54.3906 18.466C54.1264 18.9003 53.9943 19.3964 53.9943 19.9541V27.7727H52.1241Z" fill="#343434"/>
<path d="M73.0676 20.6405H76.8327V16.0561H73.0676V20.6405ZM61.0915 6.59204V29.5071H66.0551V20.6405H69.3808V16.0561H66.0551V11.1765H78.2862V6.59204H61.0915Z" fill="#2B913D"/>
<path d="M73.0676 12.364H69.3808L69.3808 16.0561H73.0676L73.0676 12.364ZM80.3001 12.364V22.1087C80.3001 24.8291 78.96 26.1966 76.6841 26.1966C74.4076 26.1966 73.0676 24.786 73.0676 21.9863L73.0676 20.6405H69.3808L69.3808 22.0871C69.3808 27.1178 72.1387 29.6439 76.634 29.6439C81.1368 29.6439 83.9868 27.1178 83.9868 21.9647V12.364H80.3001Z" fill="#2B913D"/>
<path d="M85.4736 12.3615H89.119V25.8172H97.3806V29.1809H85.4736V12.3615Z" fill="#2B913D"/>
<path d="M98.5765 12.3615H102.222V25.8172H110.484V29.1809H98.5765V12.3615Z" fill="#2B913D"/>
</g>
<defs>
<clipPath id="clip0_46_63">
<rect width="111" height="39" fill="white"/>
</clipPath>
</defs>
</svg>
