<svg width="106" height="106" viewBox="0 0 106 106" fill="none" xmlns="http://www.w3.org/2000/svg">
<g filter="url(#filter0_d_47_79)">
<path d="M72.8 22H33.2C27.0144 22 22 27.0144 22 33.2V72.8C22 78.9856 27.0144 84 33.2 84H72.8C78.9856 84 84 78.9856 84 72.8V33.2C84 27.0144 78.9856 22 72.8 22Z" fill="#2B913D"/>
<path d="M47.0191 56.5529C47.0191 55.9746 46.8522 55.5303 46.5184 55.22C46.1985 54.8955 45.5379 54.55 44.5365 54.1832L41.1984 52.8291C39.4598 52.138 38.208 51.2917 37.4431 50.2902C36.6781 49.2746 36.2956 47.8853 36.2956 46.1222C36.2956 44.359 37.0675 42.878 38.6114 41.679C40.1692 40.4801 42.1929 39.8806 44.6825 39.8806C47.1721 39.8806 49.4323 40.3532 51.463 41.2982V45.5086C49.3071 44.8456 47.4642 44.5142 45.9343 44.5142C44.4043 44.5142 43.3681 44.6623 42.8257 44.9585C42.2833 45.2406 42.012 45.6637 42.012 46.2279C42.012 46.7921 42.172 47.2294 42.4919 47.5397C42.8257 47.8359 43.5211 48.1956 44.5782 48.6188L47.8328 49.9729C49.5992 50.6922 50.8579 51.5315 51.609 52.4906C52.3601 53.4357 52.7356 54.6769 52.7356 56.2144C52.7356 58.3583 51.9289 60.0862 50.3155 61.398C48.716 62.7098 46.5254 63.3657 43.7437 63.3657C40.9619 63.3657 38.4514 62.7732 36.2122 61.5884V57.378C39.0217 58.2667 41.5252 58.711 43.7228 58.711C45.9204 58.711 47.0191 57.9916 47.0191 56.5529Z" fill="white"/>
<path d="M65.8792 30C67.5761 30 69.0991 30.2892 70.4482 30.8675V35.1625C67.4857 34.7252 65.615 34.8522 64.8361 35.5433C64.3354 35.9806 64.085 36.7422 64.085 37.8283V40.5154H70.177V45.2124H64.085V62.6675H57.847V45.2124H54.3838V41.2982L57.847 40.6635V38.6535C57.847 35.7337 58.5077 33.5615 59.829 32.1369C61.1503 30.7123 63.1671 30 65.8792 30Z" fill="white"/>
<path d="M72.4768 66.3339C70.8467 66.3339 68.9382 66.7503 67.5148 67.7753C67.1093 68.0836 67.1013 68.48 67.6103 68.48C69.2404 68.2758 72.9102 67.7833 73.6218 68.7042C74.2341 69.5249 72.8982 72.9882 72.2859 74.6298C72.0832 75.1422 72.4847 75.2584 72.8903 74.9501C75.6376 72.5918 76.3573 67.7833 75.8484 67.1667C75.5422 66.6542 74.1069 66.3339 72.4768 66.3339ZM29.3461 67.2628C29.0399 67.2628 28.8133 67.7873 29.2188 68.0956C35.3258 73.6288 43.4804 77 52.4382 77C58.8513 77 66.2664 74.9621 71.4589 71.1705C72.274 70.5539 71.5742 69.5129 70.7592 69.9213C64.9583 72.3796 58.744 73.6048 53.0425 73.6048C44.5937 73.6048 36.4709 71.2466 29.855 67.455C29.6522 67.2508 29.4494 67.2628 29.3461 67.2628Z" fill="#F7F7F7"/>
</g>
<defs>
<filter id="filter0_d_47_79" x="12" y="17" width="82" height="82" filterUnits="userSpaceOnUse" color-interpolation-filters="sRGB">
<feFlood flood-opacity="0" result="BackgroundImageFix"/>
<feColorMatrix in="SourceAlpha" type="matrix" values="0 0 0 0 0 0 0 0 0 0 0 0 0 0 0 0 0 0 127 0" result="hardAlpha"/>
<feOffset dy="5"/>
<feGaussianBlur stdDeviation="5"/>
<feColorMatrix type="matrix" values="0 0 0 0 0 0 0 0 0 0 0 0 0 0 0 0 0 0 0.1 0"/>
<feBlend mode="normal" in2="BackgroundImageFix" result="effect1_dropShadow_47_79"/>
<feBlend mode="normal" in="SourceGraphic" in2="effect1_dropShadow_47_79" result="shape"/>
</filter>
</defs>
</svg>
